<svg width="32" height="32" viewBox="0 0 32 32" fill="none" xmlns="http://www.w3.org/2000/svg">
<path d="M24.0002 5.33325H8.00016C6.5274 5.33325 5.3335 6.52716 5.3335 7.99992V23.9999C5.3335 25.4727 6.5274 26.6666 8.00016 26.6666H24.0002C25.4729 26.6666 26.6668 25.4727 26.6668 23.9999V7.99992C26.6668 6.52716 25.4729 5.33325 24.0002 5.33325Z" stroke="#E46E00" stroke-width="2" stroke-linecap="round" stroke-linejoin="round"/>
<path d="M20 12H12V20H20V12Z" stroke="#E46E00" stroke-width="2" stroke-linecap="round" stroke-linejoin="round"/>
<path d="M12 1.33325V5.33325" stroke="#E46E00" stroke-width="2" stroke-linecap="round" stroke-linejoin="round"/>
<path d="M20 1.33325V5.33325" stroke="#E46E00" stroke-width="2" stroke-linecap="round" stroke-linejoin="round"/>
<path d="M12 26.6667V30.6667" stroke="#E46E00" stroke-width="2" stroke-linecap="round" stroke-linejoin="round"/>
<path d="M20 26.6667V30.6667" stroke="#E46E00" stroke-width="2" stroke-linecap="round" stroke-linejoin="round"/>
<path d="M26.6665 12H30.6665" stroke="#E46E00" stroke-width="2" stroke-linecap="round" stroke-linejoin="round"/>
<path d="M26.6665 18.6667H30.6665" stroke="#E46E00" stroke-width="2" stroke-linecap="round" stroke-linejoin="round"/>
<path d="M1.3335 12H5.3335" stroke="#E46E00" stroke-width="2" stroke-linecap="round" stroke-linejoin="round"/>
<path d="M1.3335 18.6667H5.3335" stroke="#E46E00" stroke-width="2" stroke-linecap="round" stroke-linejoin="round"/>
</svg>
