<svg width="129" height="24" viewBox="0 0 129 24" fill="none" xmlns="http://www.w3.org/2000/svg">
<path d="M14.03 13.2848C14.03 15.0664 13.3961 16.3597 12.1285 17.1649C10.8779 17.9529 9.18201 18.3469 7.04069 18.3469H0V0.359743H6.62955C7.86296 0.359743 8.95931 0.531049 9.91863 0.873663C10.8779 1.19914 11.6317 1.7045 12.1799 2.38972C12.7281 3.05782 13.0021 3.90578 13.0021 4.93362C13.0021 5.80728 12.7709 6.56103 12.3084 7.19486C11.8458 7.82869 11.212 8.32548 10.4069 8.68522C11.4347 9.04497 12.2912 9.60171 12.9764 10.3555C13.6788 11.0921 14.03 12.0685 14.03 13.2848ZM6.14133 3.72591H4.34261V7.50321H6.14133C6.89508 7.50321 7.47752 7.33191 7.88865 6.98929C8.29979 6.64668 8.50535 6.17559 8.50535 5.57602C8.50535 4.97645 8.29979 4.52248 7.88865 4.21413C7.47752 3.88865 6.89508 3.72591 6.14133 3.72591ZM4.34261 14.9807H6.55246C7.39186 14.9807 8.09422 14.8094 8.65953 14.4668C9.24197 14.1242 9.53319 13.5246 9.53319 12.6681C9.53319 11.8801 9.24197 11.3319 8.65953 11.0236C8.09422 10.6981 7.39186 10.5353 6.55246 10.5353H4.34261V14.9807Z" fill="white"/>
<path d="M16.447 2.10707C16.447 1.49036 16.6611 0.985011 17.0894 0.591006C17.5348 0.197002 18.0744 0 18.7082 0C19.3421 0 19.8731 0.197002 20.3014 0.591006C20.7468 0.985011 20.9695 1.49036 20.9695 2.10707C20.9695 2.72377 20.7468 3.22912 20.3014 3.62313C19.8731 4 19.3421 4.18844 18.7082 4.18844C18.0744 4.18844 17.5348 4 17.0894 3.62313C16.6611 3.22912 16.447 2.72377 16.447 2.10707ZM16.8067 6.52677H20.584V18.3469H16.8067V6.52677Z" fill="white"/>
<path d="M22.3922 6.52677H24.4736V2.41542H28.2252V6.52677H30.3065V9.73876H28.2252V18.3469H24.4736V9.73876H22.3922V6.52677Z" fill="white"/>
<path d="M35.2237 12.4368C35.2237 13.379 35.5321 14.1242 36.1488 14.6724C36.7655 15.2206 37.5106 15.4946 38.3843 15.4946C39.0867 15.4946 39.7548 15.349 40.3886 15.0578C41.0224 14.7495 41.5106 14.3126 41.8533 13.7473V17.5246C41.4421 17.8501 40.9282 18.1156 40.3115 18.3212C39.6948 18.5096 38.941 18.6039 38.0503 18.6039C36.7312 18.6039 35.5577 18.3469 34.5299 17.833C33.5021 17.3191 32.6884 16.5996 32.0888 15.6745C31.5064 14.7495 31.2151 13.6702 31.2151 12.4368C31.2151 11.1863 31.5064 10.1071 32.0888 9.19914C32.6884 8.27409 33.5021 7.5546 34.5299 7.04068C35.5577 6.52677 36.7312 6.26981 38.0503 6.26981C38.941 6.26981 39.6948 6.37259 40.3115 6.57816C40.9282 6.76659 41.4421 7.00642 41.8533 7.29764V11.1006C41.5106 10.5353 41.0053 10.1071 40.3372 9.81585C39.6691 9.52462 39.0181 9.37902 38.3843 9.37902C37.8019 9.37902 37.2708 9.51606 36.7912 9.79015C36.3115 10.0471 35.9261 10.4069 35.6348 10.8694C35.3607 11.3319 35.2237 11.8544 35.2237 12.4368Z" fill="white"/>
<path d="M43.9388 12.4368C43.9388 11.1863 44.2301 10.0985 44.8125 9.17345C45.4121 8.24839 46.2172 7.52891 47.2279 7.01499C48.2558 6.50107 49.4121 6.24411 50.6969 6.24411C51.9988 6.24411 53.1551 6.50107 54.1658 7.01499C55.1765 7.52891 55.9731 8.24839 56.5555 9.17345C57.1551 10.0985 57.4549 11.1863 57.4549 12.4368C57.4549 13.6702 57.1551 14.7495 56.5555 15.6745C55.9731 16.5996 55.1765 17.3191 54.1658 17.833C53.1551 18.3469 51.9988 18.6039 50.6969 18.6039C49.4121 18.6039 48.2558 18.3469 47.2279 17.833C46.2172 17.3191 45.4121 16.5996 44.8125 15.6745C44.2301 14.7495 43.9388 13.6702 43.9388 12.4368ZM47.9474 12.4368C47.9474 13.3448 48.2129 14.0642 48.744 14.5953C49.2922 15.1263 49.9431 15.3919 50.6969 15.3919C51.4506 15.3919 52.093 15.1263 52.6241 14.5953C53.1722 14.0642 53.4463 13.3448 53.4463 12.4368C53.4463 11.5289 53.1722 10.8094 52.6241 10.2784C52.093 9.73019 51.4506 9.4561 50.6969 9.4561C49.9431 9.4561 49.2922 9.73019 48.744 10.2784C48.2129 10.8094 47.9474 11.5289 47.9474 12.4368Z" fill="white"/>
<path d="M59.5328 2.10707C59.5328 1.49036 59.747 0.985011 60.1753 0.591006C60.6206 0.197002 61.1603 0 61.7941 0C62.4279 0 62.959 0.197002 63.3872 0.591006C63.8326 0.985011 64.0553 1.49036 64.0553 2.10707C64.0553 2.72377 63.8326 3.22912 63.3872 3.62313C62.959 4 62.4279 4.18844 61.7941 4.18844C61.1603 4.18844 60.6206 4 60.1753 3.62313C59.747 3.22912 59.5328 2.72377 59.5328 2.10707ZM59.8926 6.52677H63.6699V18.3469H59.8926V6.52677Z" fill="white"/>
<path d="M74.5487 11.152C74.5487 10.4497 74.4202 9.91863 74.1633 9.55889C73.9063 9.18201 73.4609 8.99358 72.8271 8.99358C72.2104 8.99358 71.7136 9.18201 71.3367 9.55889C70.9598 9.91863 70.7714 10.4497 70.7714 11.152V18.3469H66.8656V6.52677H70.7714V8.29979C71.114 7.64882 71.5765 7.14347 72.159 6.78373C72.7586 6.42398 73.4952 6.24411 74.3688 6.24411C75.8421 6.24411 76.9127 6.63812 77.5808 7.42612C78.2661 8.21413 78.6087 9.31906 78.6087 10.7409V18.3469H74.5487V11.152Z" fill="white"/>
<path d="M82.8535 12.8994C83.4531 13.9957 84.1212 14.8779 84.8578 15.546C85.6115 16.2141 86.528 16.5482 87.6073 16.5482C88.5666 16.5482 89.3375 16.2827 89.9199 15.7516C90.5023 15.2206 90.7936 14.5439 90.7936 13.7216C90.7936 12.9165 90.6051 12.2741 90.2283 11.7944C89.8514 11.3148 89.3546 10.9293 88.7379 10.6381C88.1383 10.3298 87.4959 10.0557 86.8107 9.81585C86.3653 9.66167 85.8685 9.46467 85.3203 9.22484C84.7721 8.96788 84.2497 8.65096 83.7529 8.27409C83.2561 7.88009 82.845 7.40043 82.5195 6.83512C82.2111 6.26981 82.0569 5.57602 82.0569 4.75375C82.0569 3.86295 82.2796 3.06638 82.725 2.36403C83.1704 1.66167 83.7871 1.11349 84.5751 0.719486C85.3632 0.308351 86.2625 0.102784 87.2732 0.102784C88.2497 0.102784 89.0976 0.291221 89.8171 0.668095C90.5537 1.02784 91.179 1.49893 91.6929 2.08137C92.2068 2.64668 92.6094 3.24625 92.9006 3.88009L91.0248 4.95931C90.8021 4.51392 90.5195 4.07709 90.1769 3.64882C89.8342 3.22056 89.4146 2.86938 88.9178 2.59529C88.4381 2.3212 87.8471 2.18415 87.1447 2.18415C86.1683 2.18415 85.4574 2.42398 85.012 2.90364C84.5666 3.36617 84.3439 3.88865 84.3439 4.47109C84.3439 5.22484 84.6437 5.88437 85.2432 6.44968C85.8428 7.01499 86.9306 7.57174 88.5066 8.11992C88.9863 8.29122 89.4916 8.51392 90.0227 8.78801C90.5537 9.0621 91.042 9.41328 91.4874 9.84154C91.9499 10.2527 92.3268 10.758 92.618 11.3576C92.9092 11.94 93.0548 12.6424 93.0548 13.4647C93.0548 14.5096 92.7893 15.4176 92.2582 16.1884C91.7443 16.9593 91.0677 17.5589 90.2283 17.9872C89.3889 18.3983 88.4895 18.6039 87.5302 18.6039C86.5537 18.6039 85.6458 18.3983 84.8064 17.9872C83.9841 17.5589 83.2561 17.0021 82.6223 16.3169C82.0056 15.6146 81.5002 14.8694 81.1062 14.0814L82.8535 12.8994Z" fill="white"/>
<path d="M98.0617 24H96.006V6.52677H98.0617V8.55674C98.49 7.82013 99.0467 7.25482 99.7319 6.86081C100.434 6.46681 101.222 6.26981 102.096 6.26981C103.175 6.26981 104.152 6.5182 105.025 7.01499C105.916 7.51178 106.627 8.2227 107.158 9.14775C107.689 10.0557 107.955 11.152 107.955 12.4368C107.955 13.7045 107.689 14.8009 107.158 15.7259C106.627 16.651 105.916 17.3619 105.025 17.8587C104.152 18.3555 103.175 18.6039 102.096 18.6039C101.222 18.6039 100.434 18.4069 99.7319 18.0128C99.0467 17.6188 98.49 17.0535 98.0617 16.3169V24ZM105.873 12.4368C105.873 11.5289 105.685 10.758 105.308 10.1242C104.948 9.49036 104.46 9.01071 103.843 8.68522C103.244 8.35974 102.576 8.197 101.839 8.197C101.239 8.197 100.648 8.35974 100.066 8.68522C99.4835 9.01071 99.0039 9.49036 98.627 10.1242C98.2501 10.758 98.0617 11.5289 98.0617 12.4368C98.0617 13.3448 98.2501 14.1156 98.627 14.7495C99.0039 15.3833 99.4835 15.863 100.066 16.1884C100.648 16.5139 101.239 16.6767 101.839 16.6767C102.576 16.6767 103.244 16.5139 103.843 16.1884C104.46 15.863 104.948 15.3833 105.308 14.7495C105.685 14.1156 105.873 13.3448 105.873 12.4368Z" fill="white"/>
<path d="M109.761 12.4368C109.761 11.2377 110.027 10.1756 110.558 9.25054C111.106 8.32548 111.843 7.59743 112.768 7.06638C113.693 6.53533 114.729 6.26981 115.877 6.26981C117.042 6.26981 118.078 6.53533 118.986 7.06638C119.911 7.59743 120.639 8.32548 121.17 9.25054C121.719 10.1756 121.993 11.2377 121.993 12.4368C121.993 13.6188 121.719 14.6809 121.17 15.6231C120.639 16.5482 119.911 17.2762 118.986 17.8073C118.078 18.3383 117.042 18.6039 115.877 18.6039C114.729 18.6039 113.693 18.3383 112.768 17.8073C111.843 17.2762 111.106 16.5482 110.558 15.6231C110.027 14.6809 109.761 13.6188 109.761 12.4368ZM111.843 12.4368C111.843 13.2591 112.014 13.9872 112.357 14.621C112.716 15.2548 113.196 15.7602 113.796 16.137C114.412 16.4968 115.106 16.6767 115.877 16.6767C116.648 16.6767 117.333 16.4968 117.933 16.137C118.549 15.7602 119.029 15.2548 119.372 14.621C119.731 13.9872 119.911 13.2591 119.911 12.4368C119.911 11.6146 119.731 10.8865 119.372 10.2527C119.029 9.60171 118.549 9.09636 117.933 8.73662C117.333 8.37687 116.648 8.197 115.877 8.197C115.106 8.197 114.412 8.37687 113.796 8.73662C113.196 9.09636 112.716 9.60171 112.357 10.2527C112.014 10.8865 111.843 11.6146 111.843 12.4368Z" fill="white"/>
<path d="M123.018 6.52677H124.945V2.41542H127.001V6.52677H128.928V8.45396H127.001V18.3469H124.945V8.45396H123.018V6.52677Z" fill="white"/>
</svg>
